<svg version="1.2" xmlns="http://www.w3.org/2000/svg" viewBox="0 0 24 24" width="24" height="24"><style>.a{fill:#fff}</style><path class="a" d="m21 5q0.4 0 0.7 0.3 0.3 0.3 0.3 0.7 0 0.4-0.3 0.7-0.3 0.3-0.7 0.3h-18q-0.4 0-0.7-0.3-0.3-0.3-0.3-0.7 0-0.4 0.3-0.7 0.3-0.3 0.7-0.3zm0 6q0.4 0 0.7 0.3 0.3 0.3 0.3 0.7 0 0.4-0.3 0.7-0.3 0.3-0.7 0.3h-18q-0.4 0-0.7-0.3-0.3-0.3-0.3-0.7 0-0.4 0.3-0.7 0.3-0.3 0.7-0.3zm0 6q0.4 0 0.7 0.3 0.3 0.3 0.3 0.7 0 0.4-0.3 0.7-0.3 0.3-0.7 0.3h-18q-0.4 0-0.7-0.3-0.3-0.3-0.3-0.7 0-0.4 0.3-0.7 0.3-0.3 0.7-0.3z"/></svg>